<svg width="150" height="30" viewBox="0 0 150 30" fill="none" xmlns="http://www.w3.org/2000/svg">
<g clip-path="url(#clip0_668_2044)">
<path d="M32.2937 13.6457C32.2827 12.9835 32.129 12.2902 31.892 11.6703C30.5925 8.28162 29.2206 4.91742 27.9299 1.52434C27.526 0.462197 26.9268 -0.00665716 25.7634 9.01261e-06C19.3715 0.0400061 12.9751 0.0222296 6.57881 0.0177855C5.69641 0.0177855 4.64718 0.0333399 4.65376 1.1777C4.65815 2.5776 5.91591 2.01097 6.61613 2.01764C12.4022 2.06874 18.1906 2.03541 23.9745 2.06652C24.6286 2.07097 25.4451 1.73321 25.972 2.65537C25.3837 3.18866 24.6879 2.9709 24.0689 2.97312C17.9754 2.9909 11.8864 2.99979 5.79957 2.97312C4.5484 2.96868 3.21601 3.06867 3.32577 4.63522C3.42015 5.96179 4.78547 5.33961 5.55812 5.34628C12.0708 5.40628 18.5879 5.3685 25.1049 5.39739C25.759 5.40183 26.5756 5.06408 27.0673 5.94846C26.5075 6.57508 25.7985 6.29954 25.1795 6.29954C18.421 6.32176 11.6625 6.3151 4.89961 6.31732C4.35524 6.31732 3.80209 6.30621 3.25772 6.36176C2.25459 6.46842 1.92533 7.29058 1.94728 8.08386C1.96923 9.02379 2.86261 8.68826 3.38942 8.69048C6.4932 8.72825 9.59918 8.69492 12.7052 8.72381C13.3307 8.73047 14.0507 8.47494 14.6587 9.24599C14.0661 9.87261 13.4229 9.63041 12.8544 9.63485C9.8099 9.66152 6.76539 9.64596 3.71648 9.65041C1.08902 9.65041 0.182474 10.3615 0.0727226 13.039C-0.0655647 16.421 0.0441871 19.8185 0.0288218 23.2072C0.0244318 24.236 0.544655 24.6449 1.51047 24.6137C2.05484 24.596 2.61238 24.6804 3.15236 24.6093C8.29313 23.9205 12.7644 25.3692 16.9767 28.4246C20.3351 30.8622 20.5546 30.6355 20.5875 26.4714C20.6029 24.9759 21.1692 24.5604 22.5499 24.596C25.2278 24.6693 27.9102 24.5804 30.5881 24.6249C31.8393 24.6515 32.3419 24.1404 32.3266 22.8805C32.2871 19.7985 32.3332 16.7166 32.2937 13.6346V13.6457ZM27.0914 15.7922C27.0914 16.1033 26.8456 16.3544 26.5383 16.3544H8.36337C8.05607 16.3544 7.81023 16.6032 7.81023 16.9143V16.9876C7.81023 17.2987 8.05607 17.5498 8.36337 17.5498H26.5383C26.8456 17.5498 27.0914 17.7987 27.0914 18.1098V19.5941C27.0914 19.9052 26.8456 20.1563 26.5383 20.1563H8.36337C8.05607 20.1563 7.81023 20.4052 7.81023 20.7163C7.81023 21.0273 7.56219 21.2762 7.25488 21.2762H5.7886C5.48568 21.2762 5.23545 21.0251 5.23545 20.7163V13.7457H26.5383C26.8456 13.7457 27.0914 13.9968 27.0914 14.3056V15.79V15.7922Z" fill="#172624"/>
<path d="M45.9118 7.84167H47.9883V9.99929H46.2081C45.4881 9.99929 45.0008 10.577 45.0008 11.4881V12.1325H47.8193V14.2901H45.0008V23.6294H42.3734V14.2901H40.7842V12.1325H42.3734V11.4881C42.3734 9.17491 43.4753 7.84167 45.9118 7.84167Z" fill="#172624"/>
<path d="M53.8605 11.577C57.0828 11.577 58.7774 13.3346 58.7774 16.6255V20.7385C58.7774 21.4051 59.032 21.5829 59.4776 21.5829H59.9012V23.6294L59.2449 23.6516C58.334 23.6516 56.6372 23.6294 56.4682 21.8273C55.9392 22.9828 54.688 23.8961 52.7586 23.8961C50.5109 23.8961 48.7109 22.6295 48.7109 20.5385C48.7109 18.2254 50.3419 17.4921 52.9715 16.9588L56.1302 16.2922C56.1082 14.4901 55.3882 13.6235 53.8627 13.6235C52.6554 13.6235 51.8696 14.2901 51.5952 15.5811L48.9041 15.4256C49.3497 13.0013 51.1496 11.5792 53.8627 11.5792L53.8605 11.577ZM53.4347 21.9162C55.0041 21.9162 56.1697 20.7385 56.1697 18.3365V18.2254L54.0076 18.6253C52.5457 18.9142 51.4218 19.0697 51.4218 20.4496C51.4218 21.2718 52.0781 21.9162 53.4347 21.9162Z" fill="#172624"/>
<path d="M71.493 23.6272H69.0126L68.9489 21.9606C68.3124 23.1828 67.1468 23.896 65.494 23.896C62.3155 23.896 60.7461 21.094 60.7461 17.7365C60.7461 14.379 62.3134 11.577 65.494 11.577C67.0612 11.577 68.207 12.2213 68.8633 13.4235V7.84167H71.4908V23.6294L71.493 23.6272ZM66.2381 21.6273C68.2092 21.6273 69.0367 19.7586 69.0367 17.7365C69.0367 15.7144 68.2092 13.7568 66.2381 13.7568C64.2669 13.7568 63.4394 15.6255 63.4394 17.7365C63.4394 19.8475 64.2867 21.6273 66.2381 21.6273Z" fill="#172624"/>
<path d="M84.1473 23.6272H81.6669L81.6032 21.9606C80.9667 23.1828 79.8011 23.896 78.1482 23.896C74.9698 23.896 73.4004 21.094 73.4004 17.7365C73.4004 14.379 74.9676 11.577 78.1482 11.577C79.7155 11.577 80.8613 12.2213 81.5176 13.4235V7.84167H84.1451V23.6294L84.1473 23.6272ZM78.8902 21.6273C80.8613 21.6273 81.6888 19.7586 81.6888 17.7365C81.6888 15.7144 80.8613 13.7568 78.8902 13.7568C76.919 13.7568 76.0915 15.6255 76.0915 17.7365C76.0915 19.8475 76.9388 21.6273 78.8902 21.6273Z" fill="#172624"/>
<path d="M91.5662 11.5769C94.4066 11.5769 96.7157 13.579 96.8013 17.7587V18.492H88.8114C88.9387 20.494 89.9353 21.6717 91.5662 21.6717C92.6044 21.6717 93.5373 21.0496 93.961 20.0252L96.6521 20.2252C95.9738 22.4939 93.961 23.8938 91.5662 23.8938C88.2385 23.8938 86.0566 21.4695 86.0566 17.7342C86.0566 13.999 88.2407 11.5747 91.5662 11.5747V11.5769ZM94.0883 16.601C93.8556 14.5323 92.7735 13.7768 91.5662 13.7768C90.0406 13.7768 89.066 14.8434 88.8312 16.601H94.0883Z" fill="#172624"/>
<path d="M108.861 23.6272H106.381L106.317 21.9606C105.681 23.1828 104.515 23.896 102.862 23.896C99.6837 23.896 98.1143 21.094 98.1143 17.7365C98.1143 14.379 99.6815 11.577 102.862 11.577C104.429 11.577 105.575 12.2213 106.231 13.4235V7.84167H108.859V23.6294L108.861 23.6272ZM103.604 21.6273C105.575 21.6273 106.403 19.7586 106.403 17.7365C106.403 15.7144 105.575 13.7568 103.604 13.7568C101.633 13.7568 100.805 15.6255 100.805 17.7365C100.805 19.8475 101.653 21.6273 103.604 21.6273Z" fill="#172624"/>
<path d="M115.644 13.6879C114.564 13.6879 113.715 14.2657 113.737 15.2211C113.759 16.2211 114.944 16.621 116.046 16.8432C119.036 17.3765 120.772 18.1987 120.772 20.4896C120.772 22.7806 118.588 23.8916 116.024 23.8916C112.993 23.8916 110.938 22.3806 110.747 19.8897L113.438 19.7341C113.651 20.9785 114.54 21.7584 115.982 21.7584C116.915 21.7584 118.059 21.4029 118.059 20.403C118.037 19.2475 116.766 19.0697 115.6 18.8031C112.951 18.2476 111.021 17.5143 111.021 15.29C111.021 13.0657 112.843 11.5547 115.791 11.5547C118.377 11.5547 120.263 13.0657 120.625 15.4678L117.975 15.6011C117.762 14.4012 116.704 13.6879 115.644 13.6879Z" fill="#172624"/>
<path d="M124.949 11.8436L125.012 13.7346C125.563 12.3569 126.707 11.577 128.191 11.577C129.78 11.577 130.926 12.4658 131.413 14.0012C131.964 12.4013 133.13 11.577 134.763 11.577C137.03 11.577 138.428 13.1546 138.428 16.0455V23.6272H135.801V16.9121C135.801 14.8878 135.186 13.8212 133.979 13.8212C132.517 13.8212 131.712 14.9101 131.712 16.9121V23.6272H129.295V16.9121C129.295 14.9101 128.658 13.8212 127.473 13.8212C126.011 13.8212 125.206 14.9545 125.206 16.9121V23.6272H122.578V11.8414H124.951L124.949 11.8436Z" fill="#172624"/>
<path d="M144.873 13.6879C143.793 13.6879 142.943 14.2657 142.965 15.2211C142.987 16.2211 144.172 16.621 145.274 16.8432C148.264 17.3765 150 18.1987 150 20.4896C150 22.7806 147.816 23.8916 145.252 23.8916C142.221 23.8916 140.167 22.3806 139.976 19.8897L142.667 19.7341C142.88 20.9785 143.769 21.7584 145.211 21.7584C146.144 21.7584 147.287 21.4029 147.287 20.403C147.265 19.2475 145.994 19.0697 144.829 18.8031C142.179 18.2476 140.25 17.5143 140.25 15.29C140.25 13.0657 142.072 11.5547 145.02 11.5547C147.606 11.5547 149.491 13.0657 149.853 15.4678L147.204 15.6011C146.991 14.4012 145.933 13.6879 144.873 13.6879Z" fill="#172624"/>
</g>
<defs>
<clipPath id="clip0_668_2044">
<rect width="150" height="30" fill="white"/>
</clipPath>
</defs>
</svg>
