<svg width="133" height="45" viewBox="0 0 133 45" fill="none" xmlns="http://www.w3.org/2000/svg">
<path d="M56.3832 22.9822C56.3832 29.2027 51.5169 33.7864 45.5449 33.7864C39.5728 33.7864 34.7065 29.2027 34.7065 22.9822C34.7065 16.7179 39.5728 12.1779 45.5449 12.1779C51.5169 12.1779 56.3832 16.7179 56.3832 22.9822ZM51.6387 22.9822C51.6387 19.095 48.8183 16.4353 45.5449 16.4353C42.2715 16.4353 39.451 19.095 39.451 22.9822C39.451 26.8304 42.2715 29.529 45.5449 29.529C48.8183 29.529 51.6387 26.8255 51.6387 22.9822ZM79.7649 22.9822C79.7649 29.2027 74.8986 33.7864 68.9265 33.7864C62.9544 33.7864 58.0881 29.2027 58.0881 22.9822C58.0881 16.7227 62.9544 12.1779 68.9265 12.1779C74.8986 12.1779 79.7649 16.7179 79.7649 22.9822ZM75.0203 22.9822C75.0203 19.095 72.1999 16.4353 68.9265 16.4353C65.6531 16.4353 62.8327 19.095 62.8327 22.9822C62.8327 26.8304 65.6531 29.529 68.9265 29.529C72.1999 29.529 75.0203 26.8255 75.0203 22.9822ZM102.172 12.8307V32.2277C102.172 40.2066 97.4667 43.4655 91.9038 43.4655C86.6673 43.4655 83.5157 39.9631 82.3271 37.0988L86.4578 35.3793C87.1934 37.1378 88.9957 39.2129 91.8989 39.2129C95.4598 39.2129 97.6664 37.016 97.6664 32.8804V31.3265H97.5008C96.4389 32.6368 94.393 33.7816 91.8113 33.7816C86.4091 33.7816 81.46 29.076 81.46 23.0211C81.46 16.9224 86.4091 12.1779 91.8113 12.1779C94.3881 12.1779 96.434 13.3226 97.5008 14.594H97.6664V12.8355H102.172V12.8307ZM98.0025 23.0211C98.0025 19.2168 95.4646 16.4353 92.2351 16.4353C88.9616 16.4353 86.2192 19.2168 86.2192 23.0211C86.2192 26.7866 88.9616 29.529 92.2351 29.529C95.4646 29.529 98.0025 26.7866 98.0025 23.0211ZM109.601 1.46135V33.124H104.973V1.46135H109.601ZM127.634 26.5381L131.316 28.9932C130.128 30.7517 127.264 33.7816 122.315 33.7816C116.177 33.7816 111.593 29.037 111.593 22.9773C111.593 16.5522 116.216 12.1731 121.784 12.1731C127.39 12.1731 130.133 16.635 131.029 19.0463L131.521 20.2738L117.078 26.2556C118.184 28.4233 119.903 29.529 122.315 29.529C124.731 29.529 126.406 28.3405 127.634 26.5381ZM116.299 22.6509L125.953 18.642C125.422 17.2927 123.825 16.3525 121.944 16.3525C119.533 16.3525 116.177 18.4812 116.299 22.6509ZM17.1898 20.1715V15.5877H32.6363C32.7873 16.3866 32.8652 17.3316 32.8652 18.3546C32.8652 21.7936 31.9251 26.0461 28.8952 29.076C25.9482 32.1448 22.1828 33.7816 17.1947 33.7816C7.94919 33.7816 0.174805 26.2507 0.174805 17.0053C0.174805 7.75977 7.94919 0.228943 17.1947 0.228943C22.3094 0.228943 25.953 2.23586 28.6906 4.85168L25.4562 8.08614C23.4931 6.24484 20.8334 4.81271 17.1898 4.81271C10.4384 4.81271 5.15801 10.2538 5.15801 17.0053C5.15801 23.7567 10.4384 29.1978 17.1898 29.1978C21.569 29.1978 24.063 27.4393 25.6608 25.8416C26.9565 24.5458 27.809 22.6948 28.1451 20.1666L17.1898 20.1715Z" fill="#AEAEB2"/>
</svg>
