<svg width="103" height="39" viewBox="0 0 103 39" fill="none" xmlns="http://www.w3.org/2000/svg">
<path d="M27.099 14.8628C26.5813 15.143 26.0444 15.3866 25.4924 15.5915C24.3008 16.0193 23.0688 16.241 21.8083 16.3238C21.5355 16.3411 21.2623 16.3598 20.9886 16.3646C20.8517 16.3646 20.8006 16.4187 20.8109 16.5499C20.8166 16.616 20.8109 16.6829 20.8109 16.749V28.2637C20.8109 28.5899 20.8109 28.5904 20.4852 28.5904C19.0937 28.5904 17.7021 28.5855 16.3088 28.5957C16.0818 28.5957 16.0249 28.5301 16.0253 28.3084C16.0316 24.4409 16.033 20.5733 16.0298 16.7055C16.0298 16.3912 16.0298 16.389 15.7121 16.3903C13.6173 16.401 11.5224 16.3584 9.42841 16.4156C8.71712 16.4319 8.01346 16.5657 7.346 16.8114C6.02912 17.3048 5.31467 18.2942 5.001 19.6236C4.83618 20.3254 4.79352 21.0395 4.79039 21.755C4.78153 23.9324 4.7873 26.1097 4.78686 28.2872C4.78686 28.5895 4.78686 28.5904 4.48341 28.5904C3.08431 28.5904 1.68433 28.5859 0.286571 28.5957C0.0595357 28.5957 0 28.5283 0 28.3067C0.00533156 19.1097 0.00696068 9.91279 0.00488729 0.715839C0.00488729 0.422386 0.00488719 0.418841 0.300345 0.418841C1.69958 0.418841 3.09854 0.418841 4.49717 0.418841C4.7864 0.418841 4.78686 0.421499 4.78686 0.7185C4.78686 4.8301 4.78686 8.94141 4.78686 13.0524V13.3095C4.8726 13.3574 4.90903 13.2931 4.95259 13.2621C6.20237 12.3755 7.60326 11.8782 9.10941 11.6463C9.95359 11.5169 10.8004 11.477 11.6517 11.4779C13.0065 11.4799 14.3611 11.4799 15.7157 11.4779C16.0325 11.4779 16.0329 11.4779 16.0329 11.1676V0.761941C16.0329 0.419283 16.0329 0.418396 16.3657 0.418396C17.7495 0.418396 19.1336 0.418396 20.5181 0.418396C20.8113 0.418396 20.8122 0.418396 20.8122 0.713623V11.1653C20.8122 11.4779 20.8122 11.4805 21.1259 11.4756C22.0207 11.4672 22.9146 11.4881 23.8081 11.3905C25.6684 11.188 27.0155 10.2668 27.8339 8.59121C27.9418 8.36955 28.0374 8.35138 28.2528 8.43606C29.388 8.88155 30.529 9.3133 31.6712 9.74107C31.8468 9.80669 31.9224 9.88649 31.9218 10.0873C31.9159 16.162 31.9159 22.2366 31.9218 28.3111C31.9218 28.5398 31.853 28.5948 31.6334 28.5935C30.2344 28.5842 28.8344 28.589 27.4367 28.5886C27.1385 28.5886 27.1376 28.5886 27.1376 28.2783C27.1376 23.9087 27.1376 19.5391 27.1376 15.1695C27.1372 15.0791 27.1598 14.982 27.099 14.8628Z" fill="#AEAEB2"/>
<path d="M74.0645 26.9929C74.001 26.9765 73.9678 27.024 73.931 27.0546C72.4983 28.188 70.8655 28.8126 69.0438 28.9514C67.1186 29.0981 65.2643 28.8162 63.5194 27.9726C61.0375 26.7722 59.4744 24.7907 58.6814 22.1811C58.2295 20.6899 58.1077 19.1615 58.2217 17.6082C58.3478 15.8829 58.7809 14.2512 59.6786 12.7613C61.0639 10.4629 63.1154 9.09229 65.7159 8.50581C66.6115 8.30353 67.529 8.2152 68.4465 8.24296C70.7642 8.31209 72.7923 9.0985 74.4892 10.6952C74.5313 10.7355 74.5759 10.7732 74.6369 10.8282C74.7422 10.5737 74.7438 10.3153 74.789 10.068C74.8637 9.66235 74.9222 9.25408 74.9811 8.84538C75.0062 8.66807 75.0697 8.58385 75.275 8.58561C76.4147 8.59714 77.5543 8.59535 78.6961 8.58561C78.8968 8.58561 78.9628 8.64103 78.9628 8.84627C78.9684 15.6954 79.0071 22.5437 78.9783 29.3933C78.9668 32.3009 77.8675 34.7678 75.5913 36.6494C74.3473 37.6782 72.8982 38.2967 71.324 38.6169C69.1633 39.056 67.0005 39.0906 64.8718 38.4561C61.9789 37.5942 59.8629 35.8041 58.5767 33.0646C58.4717 32.8362 58.3878 32.5988 58.3255 32.3553C58.2936 32.2351 58.3255 32.1683 58.459 32.1337C59.7916 31.7687 61.1233 31.3994 62.4535 31.0254C62.5606 30.9954 62.6161 31.0121 62.6489 31.1265C63.0618 32.5658 64.0512 33.4911 65.3721 34.0934C66.3878 34.5567 67.4692 34.677 68.58 34.604C69.54 34.5413 70.4736 34.3728 71.3475 33.9587C73.0546 33.1502 74.0053 31.8144 74.0902 29.9191C74.1311 28.9979 74.1038 28.0741 74.106 27.1516C74.1007 27.1015 74.1177 27.0377 74.0645 26.9929ZM74.2246 18.4376C74.2358 18.1096 74.1853 17.6188 74.0818 17.1343C73.7067 15.3842 72.7718 14.0522 71.1192 13.2875C69.9195 12.7325 68.6507 12.6399 67.3651 12.8735C65.6066 13.1935 64.2811 14.1364 63.5231 15.7664C62.7406 17.4482 62.705 19.1947 63.3066 20.9364C63.8443 22.4927 64.9167 23.5597 66.4767 24.1178C67.4265 24.4578 68.4097 24.5252 69.409 24.4046C71.0129 24.2109 72.3171 23.4963 73.2349 22.1501C73.9585 21.0849 74.2252 19.8814 74.2252 18.4394L74.2246 18.4376Z" fill="#AEAEB2"/>
<path d="M87.1003 20.3112C87.205 20.8046 87.3918 21.277 87.6529 21.7088C88.4998 23.1367 89.7686 23.9758 91.385 24.2724C92.94 24.5578 94.4662 24.4448 95.9169 23.7714C96.7678 23.3769 97.4679 22.774 98.1171 22.1087C98.1778 22.0466 98.2256 21.9673 98.3321 21.934L101.438 25.1128C101.492 25.1354 101.438 25.1713 101.399 25.2126C99.8323 26.8647 97.9904 28.0553 95.7397 28.5567C94.3222 28.8696 92.8666 28.9721 91.4194 28.8608C89.7928 28.7415 88.2622 28.3054 86.8624 27.4622C84.6479 26.1275 83.2765 24.1646 82.6096 21.6929C82.3011 20.5361 82.1694 19.3395 82.2193 18.1435C82.3014 15.9431 82.8617 13.888 84.1931 12.0958C85.5706 10.2385 87.4255 9.08634 89.6642 8.5615C91.9413 8.02957 94.2085 8.11821 96.4174 8.89485C99.6328 10.0234 101.634 12.2864 102.476 15.5645C102.855 17.0349 102.952 18.5301 102.713 20.0394C102.679 20.2522 102.606 20.3156 102.39 20.3152C97.4013 20.3093 92.4125 20.3079 87.4237 20.3112H87.1003ZM87.2081 16.4169H97.8095C97.847 16.3509 97.8179 16.3105 97.8037 16.2706C97.3096 14.8818 96.4134 13.8494 95.0635 13.2315C93.9619 12.727 92.8 12.626 91.612 12.778C90.2695 12.9491 89.124 13.5152 88.2353 14.5463C87.7641 15.0908 87.4141 15.7289 87.2081 16.4183V16.4169Z" fill="#AEAEB2"/>
<path d="M41.3107 10.6422C41.459 10.5092 41.609 10.3705 41.7645 10.2379C42.9843 9.19533 44.3739 8.47942 45.9751 8.3052C48.3535 8.04634 50.4599 8.70417 52.1807 10.4064C53.5015 11.7128 54.2159 13.336 54.5656 15.1362C54.7329 15.9944 54.7722 16.8623 54.7722 17.7339C54.7722 21.2317 54.7722 24.7298 54.7722 28.2281C54.7722 28.5903 54.7722 28.5908 54.4107 28.5908H50.2787C49.9374 28.5908 49.9364 28.5908 49.9364 28.2543C49.9364 24.7928 49.9364 21.3315 49.9364 17.8704C49.9364 17.0561 49.8841 16.2502 49.649 15.4638C49.1753 13.8795 47.9536 12.9061 46.3026 12.7717C45.6108 12.7159 44.9253 12.7194 44.2531 12.8834C42.8722 13.219 42.0423 14.122 41.6375 15.4514C41.3958 16.2444 41.35 17.0592 41.35 17.8801C41.35 21.3197 41.35 24.7589 41.35 28.1975C41.35 28.6852 41.3302 28.5885 40.9501 28.5894C39.5812 28.5934 38.2121 28.5894 36.8426 28.5894C36.5517 28.5894 36.5508 28.5894 36.5508 28.2942C36.5508 21.829 36.5508 15.3641 36.5508 8.89922C36.5508 8.59334 36.5508 8.59248 36.8537 8.59248H40.6948C41.0254 8.59248 41.0207 8.59248 41.0554 8.9143C41.1143 9.45642 41.1787 9.99768 41.2407 10.5394C41.2416 10.5613 41.2487 10.5825 41.2608 10.6007C41.2732 10.6189 41.2905 10.6333 41.3107 10.6422Z" fill="#AEAEB2"/>
<path d="M26.8692 2.86142C26.8741 1.25984 28.1608 -0.00706289 29.7762 2.96342e-05C31.3601 0.00667889 32.6326 1.3024 32.6264 2.89821C32.6212 3.65992 32.313 4.38841 31.7696 4.92339C31.2263 5.45841 30.4919 5.75606 29.7285 5.75096C28.965 5.74583 28.2349 5.43835 27.6987 4.89613C27.1625 4.35392 26.8641 3.62135 26.8692 2.85965V2.86142Z" fill="#AEAEB2"/>
</svg>
