<svg width="126" height="30" viewBox="0 0 126 30" fill="none" xmlns="http://www.w3.org/2000/svg">
<path fill-rule="evenodd" clip-rule="evenodd" d="M7.57883 12.001C13.2742 10.0428 14.2437 4.94195 13.5166 0.252063C13.5166 0.0828399 13.662 -0.0380335 13.8074 0.0103158C19.2605 2.66953 25.3921 8.47145 25.3921 17.1743C25.3921 23.8465 20.2057 29.7452 12.6683 29.7452C9.9788 29.8672 7.32513 29.0923 5.12615 27.5428C2.92718 25.9933 1.30813 23.7575 0.524568 21.1882C-0.258999 18.6189 -0.162465 15.8625 0.798933 13.354C1.76033 10.8456 3.53184 8.72789 5.83385 7.33524C5.97927 7.23854 6.17315 7.33524 6.17315 7.50446C6.24586 8.39893 6.48822 10.6472 7.48188 12.001H7.57883ZM41.4362 24.4509L41.8482 23.9674L43.1327 28.0288L42.963 28.198C41.9936 29.0924 40.5395 29.5518 38.6733 29.5518H38.6006C36.9041 29.5518 35.5711 29.0683 34.6502 28.1738C33.7292 27.2552 33.2445 25.8772 33.2445 24.1366V13.0646H29.9727V8.59232H33.2445V3.20137H38.2855V8.59232H42.2844V13.0646H38.2613V23.0488C38.2613 23.5081 38.3825 24.9828 39.7881 24.9828C40.5152 24.9828 41.1938 24.7168 41.4362 24.4267V24.4509ZM44.1021 29.0924V8.6165H49.1431V29.0924H44.1021ZM46.5984 0.252063C47.1965 0.252082 47.7813 0.428716 48.2789 0.759703C48.7766 1.09069 49.1649 1.56122 49.3949 2.11198C49.6249 2.66274 49.6862 3.26908 49.5713 3.85459C49.4564 4.4401 49.1702 4.97857 48.749 5.40213C48.3277 5.82568 47.7902 6.11538 47.2041 6.23469C46.6181 6.354 46.0097 6.2976 45.4558 6.07259C44.9018 5.84757 44.427 5.46402 44.0912 4.97027C43.7554 4.47653 43.5737 3.89468 43.5689 3.29807C43.5689 1.65419 44.9504 0.252063 46.5984 0.252063ZM62.6909 8.10883C67.0534 8.10883 69.4527 10.4779 69.4527 14.8052V29.0683H64.4117V16.014C64.3147 13.6932 63.1999 12.6295 60.8248 12.6295C58.692 12.6295 56.9713 13.9349 56.0988 15.047V29.0683H51.0578V8.64067H56.0988V10.8164C57.553 9.41426 59.8796 8.15718 62.6909 8.15718V8.10883ZM86.2239 10.7439V1.12235H91.2649V29.1166H86.2239V26.9892C85.4525 27.8008 84.5245 28.4483 83.4958 28.8928C82.467 29.3374 81.3587 29.5697 80.2376 29.5759C74.7361 29.5759 71.0523 25.2728 71.0523 18.8666C71.0523 12.4361 74.7361 8.13301 80.2376 8.13301C81.3612 8.13812 82.4718 8.37237 83.5012 8.82135C84.5307 9.27034 85.4572 9.92459 86.2239 10.7439ZM86.2239 15.0711C85.6621 14.3413 84.9442 13.7456 84.1224 13.3274C83.3007 12.9092 82.3958 12.679 81.4736 12.6537C78.3472 12.6537 76.263 15.1437 76.263 18.8666C76.263 22.5653 78.3472 25.0553 81.4736 25.0553C83.2913 25.0553 85.2787 24.0883 86.2239 22.6862V15.0711ZM103.043 8.13301C109.005 8.13301 113.15 12.7262 113.15 19.2534V20.6313H97.9055C98.4144 23.5081 100.693 25.3454 103.795 25.3454C105.758 25.3454 107.915 24.4993 109.151 23.2664L109.49 22.9763L111.89 26.4091L111.647 26.6266C109.376 28.6351 106.416 29.6916 103.383 29.5759C97.0815 29.5759 92.6463 25.152 92.6463 18.8424C92.5973 17.4493 92.831 16.0608 93.3334 14.7601C93.8357 13.4594 94.5964 12.2733 95.5697 11.2731C96.543 10.2729 97.7089 9.47918 98.9974 8.93958C100.286 8.39998 101.67 8.12564 103.068 8.13301H103.043ZM97.8813 16.8359H108.23C107.939 13.7657 105.394 12.3636 103.043 12.3636C99.505 12.3636 98.1721 15.0228 97.8813 16.8601V16.8359ZM125.34 8.13301H125.704V13.2097L125.268 13.1372C124.904 13.0646 124.444 13.0163 123.983 13.0163C122.359 13.0163 120.105 14.1525 119.257 15.3612V29.0683H114.216V8.6165H119.281V10.8889C120.954 9.14834 123.159 8.13301 125.34 8.13301Z" fill="#AEAEB2"/>
</svg>
