<svg width="85" height="29" viewBox="0 0 85 29" fill="none" xmlns="http://www.w3.org/2000/svg">
<g clip-path="url(#clip0_973_502)">
<path d="M4.1976 17.3861V0H0V17.6048C0 24.2203 4.63371 28.5942 10.6303 28.5942C13.5741 28.5942 16.1362 27.446 18.0442 25.4778V28.1021H22.1873V0H17.9897V17.3861C17.9897 21.8694 14.9914 24.8764 11.1209 24.8764C7.19588 24.8217 4.1976 21.924 4.1976 17.3861ZM26.3304 28.1568H30.3099V25.5871C32.1634 27.5007 34.7801 28.6489 37.6148 28.6489C43.6114 28.6489 48.3541 23.8923 48.3541 17.9329C48.3541 11.9735 43.6114 7.21689 37.6148 7.21689C34.7801 7.21689 32.2179 8.36503 30.3644 10.2786V0H26.3304V28.1568ZM30.3099 17.9329C30.3099 13.9417 33.4718 10.8253 37.3423 10.8253C41.2128 10.8253 44.3746 13.9417 44.3746 17.9329C44.3746 21.8694 41.2128 25.0404 37.3423 25.0404C33.4172 25.0404 30.3099 21.8694 30.3099 17.9329ZM50.7528 17.8782C50.7528 24.0016 55.4955 28.5942 61.6011 28.5942C65.3081 28.5942 68.3609 26.954 70.4324 24.2203L67.4887 22.0334C65.9623 24.0563 63.9452 25.0404 61.6011 25.0404C58.1667 25.0404 55.3865 22.5254 54.8413 19.1904H71.4682V17.8782C71.4682 11.7548 67.1616 7.21689 61.274 7.21689C55.2775 7.21689 50.7528 12.0828 50.7528 17.8782ZM61.165 10.7707C64.1633 10.7707 66.6709 12.8482 67.3796 16.0193H54.8959C55.6591 12.8482 58.1667 10.7707 61.165 10.7707ZM84.9332 11.2627V7.49025H83.5158C81.2808 7.49025 79.6453 8.52905 78.6096 10.1693V7.65427H74.6845V28.1568H78.7186V16.4567C78.7186 13.2856 80.6266 11.208 83.2978 11.208H84.9332V11.2627Z" fill="#AEAEB2"/>
</g>
<defs>
<clipPath id="clip0_973_502">
<rect width="84.9332" height="28.5942" fill="white"/>
</clipPath>
</defs>
</svg>
