<svg width="184" height="43" viewBox="0 0 184 43" fill="none" xmlns="http://www.w3.org/2000/svg">
<g clip-path="url(#clip0_973_491)">
<path d="M21.3489 0C9.68009 0 0.181919 9.53583 0.176969 21.2562C0.175732 25.0027 1.15092 28.6597 3.00353 31.883L0 42.9L11.2233 39.9439C14.3159 41.6375 17.7972 42.5297 21.3403 42.531H21.3489C33.0165 42.531 42.5147 32.9939 42.5196 21.2736C42.5221 15.5936 40.3217 10.2528 36.3245 6.23544C32.3272 2.21683 27.0119 0.00248523 21.3489 0ZM21.3489 38.9411H21.3415C18.1845 38.9411 15.0869 38.0874 12.3854 36.4782L11.7431 36.0955L5.08384 37.8501L6.86096 31.3301L6.44267 30.6615C4.68164 27.8482 3.751 24.5963 3.75224 21.2587C3.75595 11.5166 11.6503 3.59116 21.3563 3.59116C26.0565 3.5924 30.4746 5.43271 33.7962 8.77286C37.119 12.1118 38.9468 16.5516 38.9456 21.2723C38.9419 31.0144 31.0476 38.9411 21.3489 38.9411ZM31.0005 25.7085C30.4721 25.4425 27.8708 24.1577 27.3857 23.98C26.9005 23.8023 26.5478 23.7141 26.1951 24.2459C25.8424 24.7777 24.8289 25.9744 24.5207 26.3285C24.2126 26.6839 23.9032 26.7274 23.3748 26.4615C22.8463 26.1956 21.141 25.6339 19.1213 23.8247C17.5484 22.4168 16.4866 20.6771 16.1784 20.1453C15.8703 19.6134 16.145 19.3264 16.4111 19.0617C16.6487 18.8244 16.9395 18.4417 17.2044 18.131C17.4692 17.8203 17.5571 17.5992 17.7328 17.2438C17.9085 16.8896 17.8207 16.579 17.6882 16.313C17.5558 16.0471 16.4977 13.4327 16.0572 12.369C15.6277 11.3339 15.1921 11.4731 14.8666 11.4569C14.5585 11.4408 14.2058 11.4383 13.8531 11.4383C13.5004 11.4383 12.9274 11.5712 12.4423 12.1031C11.9572 12.6349 10.5909 13.9198 10.5909 16.5342C10.5909 19.1487 12.4868 21.6749 12.7504 22.0291C13.0153 22.3832 16.4804 27.7488 21.787 30.0489C23.0493 30.5957 24.0344 30.9225 24.8029 31.1673C26.0702 31.5711 27.2235 31.514 28.1344 31.3773C29.1504 31.2244 31.2641 30.0924 31.7047 28.851C32.1453 27.6109 32.1453 26.5472 32.0129 26.3248C31.8804 26.1036 31.5277 25.9707 30.9993 25.7047L31.0005 25.7085ZM68.4536 25.3841H68.3967L64.887 11.1661H60.6571L57.0893 25.2102H57.0323L53.7813 11.1661H49.2642L54.702 31.7998H59.2772L62.7003 17.7545H62.7585L66.2397 31.7998H70.7283L76.2527 11.1661H71.8222L68.4549 25.3841H68.4536ZM90.0327 18.1447C89.6305 17.6153 89.0786 17.2015 88.3794 16.9021C87.6789 16.6051 86.7817 16.4559 85.6889 16.4559C84.9217 16.4559 84.1358 16.6523 83.329 17.0487C82.5233 17.4426 81.8625 18.0738 81.3439 18.9412H81.2573V11.1661H77.1722V31.7985H81.2573V23.9676C81.2573 22.4454 81.5061 21.3531 82.006 20.6871C82.5047 20.0235 83.3104 19.6905 84.4229 19.6905C85.4006 19.6905 86.0813 19.9937 86.4661 20.6013C86.8498 21.2077 87.0416 22.1272 87.0416 23.3599V31.7985H91.128V22.6094C91.128 21.6849 91.0451 20.8424 90.8829 20.0807C90.7196 19.3214 90.4374 18.6753 90.034 18.1447H90.0327ZM106.865 28.4758V20.7032C106.865 19.7961 106.664 19.0692 106.259 18.5212C105.857 17.9719 105.34 17.5432 104.708 17.2351C104.074 16.9269 103.373 16.7194 102.606 16.6138C101.839 16.5081 101.082 16.4547 100.334 16.4547C99.5099 16.4547 98.6894 16.5355 97.8751 16.7007C97.0583 16.8648 96.3257 17.1394 95.6735 17.5246C95.0213 17.9098 94.483 18.4205 94.0634 19.0555C93.6402 19.6917 93.4001 20.4907 93.3432 21.455H97.4283C97.5051 20.646 97.7748 20.067 98.2352 19.7203C98.6956 19.3736 99.3279 19.2009 100.134 19.2009C100.497 19.2009 100.838 19.2245 101.155 19.273C101.47 19.3214 101.749 19.4159 101.989 19.5612C102.229 19.7054 102.421 19.9079 102.564 20.1689C102.708 20.4286 102.779 20.7815 102.779 21.2226C102.798 21.6476 102.673 21.9682 102.406 22.1906C102.136 22.413 101.772 22.582 101.312 22.6964C100.851 22.8132 100.324 22.9002 99.7289 22.9561C99.1337 23.0157 98.5297 23.094 97.9171 23.1884C97.3021 23.2854 96.6932 23.4146 96.0905 23.5786C95.4866 23.7414 94.947 23.9887 94.478 24.3142C94.0077 24.6435 93.6241 25.0809 93.3259 25.6302C93.0288 26.1794 92.8803 26.879 92.8803 27.7252C92.8803 28.4956 93.0103 29.1604 93.2689 29.7184C93.5276 30.2788 93.8877 30.7398 94.3481 31.1064C94.8084 31.473 95.3455 31.7426 95.9594 31.9166C96.5719 32.0893 97.2353 32.1763 97.9444 32.1763C98.8651 32.1763 99.7673 32.0408 100.648 31.7724C101.531 31.5003 102.299 31.0306 102.951 30.3546C102.97 30.6056 103.003 30.8516 103.052 31.0915C103.1 31.3313 103.162 31.5686 103.239 31.7985H107.382C107.19 31.4916 107.055 31.0293 106.978 30.4118C106.9 29.7954 106.862 29.1517 106.862 28.4758H106.865ZM102.779 26.0191C102.779 26.2527 102.756 26.5609 102.708 26.9449C102.661 27.3313 102.531 27.7103 102.319 28.0868C102.107 28.4621 101.781 28.7864 101.34 29.0548C100.9 29.3257 100.276 29.4599 99.469 29.4599C99.1436 29.4599 98.8268 29.4313 98.5198 29.3717C98.2129 29.3145 97.9444 29.2126 97.7142 29.0685C97.484 28.9243 97.3021 28.7268 97.1672 28.4758C97.0335 28.2248 96.9655 27.9178 96.9655 27.5525C96.9655 27.1673 97.0335 26.8479 97.1672 26.5982C97.3021 26.3484 97.4791 26.1409 97.7006 25.9769C97.9196 25.8128 98.1795 25.6836 98.4765 25.5867C98.7735 25.491 99.0755 25.414 99.3836 25.3556C99.7091 25.2984 100.036 25.2487 100.361 25.2114C100.689 25.1741 101 25.1244 101.297 25.0673C101.595 25.0089 101.872 24.9368 102.132 24.8498C102.391 24.7628 102.606 24.6448 102.779 24.4895V26.0204V26.0191ZM114.49 12.3802H110.404V16.8586H107.93V19.6035H110.404V28.4186C110.404 29.1704 110.53 29.7768 110.779 30.239C111.029 30.7013 111.369 31.0592 111.8 31.3089C112.232 31.5599 112.731 31.7277 113.297 31.8134C113.862 31.8992 114.463 31.9439 115.096 31.9439C115.5 31.9439 115.911 31.934 116.334 31.9166C116.755 31.8967 117.139 31.8594 117.485 31.7998V28.6212C117.292 28.6597 117.092 28.6907 116.88 28.7081C116.67 28.728 116.449 28.738 116.219 28.738C115.53 28.738 115.068 28.6212 114.838 28.39C114.609 28.1589 114.494 27.6966 114.494 27.002V19.6035H117.486V16.8586H114.494V12.3802H114.49ZM131.378 25.2549C131.109 24.7827 130.754 24.3876 130.314 24.0695C129.873 23.7526 129.368 23.4966 128.804 23.3028C128.237 23.1114 127.657 22.9486 127.063 22.8132C126.487 22.6777 125.923 22.5522 125.366 22.4367C124.809 22.3211 124.315 22.1906 123.883 22.0477C123.453 21.9023 123.104 21.7159 122.835 21.4836C122.565 21.2524 122.433 20.9555 122.433 20.5876C122.433 20.2795 122.507 20.0334 122.662 19.8508C122.815 19.6681 123.003 19.5289 123.224 19.4308C123.445 19.3351 123.688 19.273 123.956 19.2431C124.225 19.2146 124.475 19.2009 124.704 19.2009C125.433 19.2009 126.066 19.3401 126.605 19.6196C127.141 19.8992 127.439 20.4336 127.495 21.2226H131.379C131.302 20.2981 131.067 19.5327 130.675 18.925C130.283 18.3186 129.788 17.8328 129.194 17.4662C128.6 17.0996 127.924 16.8399 127.164 16.6858C126.407 16.5317 125.626 16.4547 124.821 16.4547C124.017 16.4547 123.227 16.5268 122.463 16.6697C121.694 16.8151 121.004 17.0661 120.391 17.4227C119.776 17.7793 119.283 18.2652 118.908 18.8815C118.533 19.4979 118.347 20.2882 118.347 21.2512C118.347 21.9061 118.481 22.4615 118.751 22.9138C119.017 23.3674 119.374 23.7414 119.813 24.0409C120.256 24.3391 120.76 24.5814 121.325 24.7628C121.891 24.948 122.471 25.1058 123.065 25.2412C124.524 25.5494 125.662 25.8576 126.476 26.167C127.292 26.4752 127.699 26.9374 127.699 27.5537C127.699 27.9203 127.613 28.221 127.44 28.4621C127.267 28.7044 127.051 28.8958 126.793 29.0399C126.533 29.1853 126.245 29.2922 125.929 29.358C125.612 29.4264 125.309 29.4599 125.022 29.4599C124.618 29.4599 124.231 29.4115 123.857 29.3158C123.482 29.2188 123.152 29.0697 122.864 28.8672C122.576 28.6646 122.34 28.4049 122.158 28.0868C121.978 27.7687 121.885 27.3897 121.885 26.9449H118.001C118.041 27.9464 118.265 28.7802 118.678 29.445C119.089 30.1098 119.616 30.6441 120.26 31.0492C120.902 31.4531 121.637 31.7426 122.463 31.9166C123.286 32.0893 124.13 32.1763 124.992 32.1763C125.855 32.1763 126.667 32.0943 127.482 31.9315C128.298 31.7675 129.022 31.4829 129.654 31.0778C130.289 30.674 130.799 30.1396 131.194 29.4748C131.586 28.8088 131.783 27.9862 131.783 27.0033C131.783 26.3086 131.649 25.7271 131.38 25.2561L131.378 25.2549ZM139.491 11.1661L131.723 31.7998H136.269L137.879 27.2046H145.561L147.113 31.7998H151.805L144.123 11.1661H139.49H139.491ZM139.061 23.8247L141.736 16.2534H141.793L144.383 23.8247H139.061ZM165.933 18.8828C165.377 18.1509 164.677 17.5631 163.833 17.1207C162.989 16.6771 161.982 16.4559 160.813 16.4559C159.891 16.4559 159.048 16.6386 158.281 17.0039C157.511 17.3705 156.88 17.9583 156.383 18.7672H156.324V16.8586H152.438V37.0312H156.527V29.9507H156.583C157.082 30.6839 157.72 31.2369 158.499 31.6109C159.273 31.9862 160.124 32.175 161.044 32.175C162.138 32.175 163.093 31.9613 163.907 31.5388C164.722 31.1151 165.403 30.546 165.95 29.8327C166.497 29.1194 166.903 28.3018 167.174 27.3773C167.44 26.4515 167.576 25.4885 167.576 24.487C167.576 23.427 167.44 22.4118 167.174 21.4376C166.903 20.4659 166.492 19.6122 165.935 18.8803L165.933 18.8828ZM163.315 26.1359C163.199 26.715 163.002 27.2195 162.725 27.6532C162.447 28.0868 162.083 28.4397 161.63 28.7081C161.181 28.9778 160.619 29.1145 159.948 29.1145C159.277 29.1145 158.741 28.979 158.281 28.7081C157.821 28.4397 157.451 28.0868 157.172 27.6532C156.894 27.2195 156.693 26.715 156.568 26.1359C156.443 25.5581 156.383 24.9703 156.383 24.3751C156.383 23.7799 156.438 23.1599 156.553 22.5833C156.67 22.0055 156.865 21.4948 157.145 21.0499C157.421 20.6075 157.787 20.2472 158.239 19.9676C158.689 19.688 159.249 19.5463 159.921 19.5463C160.593 19.5463 161.126 19.688 161.575 19.9676C162.026 20.2459 162.396 20.6113 162.683 21.0648C162.97 21.5184 163.175 22.034 163.302 22.6106C163.428 23.1884 163.487 23.7774 163.487 24.3751C163.487 24.9728 163.432 25.5593 163.317 26.1359H163.315ZM183.454 21.4401C183.185 20.4684 182.773 19.6147 182.216 18.8828C181.659 18.1509 180.961 17.5631 180.117 17.1207C179.272 16.6771 178.265 16.4559 177.095 16.4559C176.176 16.4559 175.331 16.6386 174.565 17.0039C173.797 17.3705 173.164 17.9583 172.665 18.7672H172.609V16.8586H168.725V37.0312H172.81V29.9507H172.868C173.367 30.6839 174.005 31.2369 174.781 31.6109C175.557 31.9862 176.407 32.175 177.328 32.175C178.421 32.175 179.374 31.9613 180.19 31.5388C181.005 31.1151 181.687 30.546 182.232 29.8327C182.781 29.1194 183.187 28.3018 183.455 27.3773C183.725 26.4515 183.859 25.4885 183.859 24.487C183.859 23.427 183.725 22.4118 183.455 21.4376L183.454 21.4401ZM179.598 26.1359C179.484 26.715 179.287 27.2195 179.009 27.6532C178.729 28.0868 178.365 28.4397 177.915 28.7081C177.464 28.9778 176.904 29.1145 176.232 29.1145C175.56 29.1145 175.022 28.979 174.562 28.7081C174.101 28.4397 173.733 28.0868 173.453 27.6532C173.176 27.2195 172.974 26.715 172.849 26.1359C172.724 25.5581 172.662 24.9703 172.662 24.3751C172.662 23.7799 172.721 23.1599 172.836 22.5833C172.951 22.0055 173.148 21.4948 173.426 21.0499C173.703 20.6075 174.068 20.2472 174.52 19.9676C174.969 19.688 175.531 19.5463 176.203 19.5463C176.875 19.5463 177.406 19.688 177.856 19.9676C178.308 20.2459 178.677 20.6113 178.965 21.0648C179.254 21.5184 179.46 22.034 179.584 22.6106C179.71 23.1884 179.771 23.7774 179.771 24.3751C179.771 24.9728 179.713 25.5593 179.598 26.1359Z" fill="#AEAEB2"/>
</g>
<defs>
<clipPath id="clip0_973_491">
<rect width="183.857" height="42.9" fill="white"/>
</clipPath>
</defs>
</svg>
