<svg width="32" height="32" viewBox="0 0 32 32" fill="none" xmlns="http://www.w3.org/2000/svg">
  <!-- Blue speech bubble -->
  <path d="M6 4C4.89543 4 4 4.89543 4 6V18C4 19.1046 4.89543 20 6 20H8.58579L10.2929 21.7071C10.6834 22.0976 11.3166 22.0976 11.7071 21.7071L13.4142 20H26C27.1046 20 28 19.1046 28 18V6C28 4.89543 27.1046 4 26 4H6Z" fill="#3B82F6"/>
  
  <!-- Speech bubble pointer -->
  <path d="M13.4142 20H10.5858L12 21.4142L13.4142 20Z" fill="#3B82F6"/>
  
  <!-- Top text line (shorter) -->
  <rect x="8" y="9" width="12" height="2" rx="1" fill="#374151"/>
  
  <!-- Bottom text line (longer) -->
  <rect x="8" y="13" width="16" height="2" rx="1" fill="#374151"/>
</svg>
